1.9Hzhigh3min_grf.mot
version=1
nRows=27
nColumns 19
inDegrees=yes
endheader
time	1_ground_force_vx	1_ground_force_vy	1_ground_force_vz	1_ground_force_px	1_ground_force_py	1_ground_force_pz	1_ground_torque_x	1_ground_torque_y	1_ground_torque_z	2_ground_force_vx	2_ground_force_vy	2_ground_force_vz	2_ground_force_px	2_ground_force_py	2_ground_force_pz	2_ground_torque_x	2_ground_torque_y	2_ground_torque_z
            0.005000	            3.837801	           53.184819	           -1.111355	           -0.252209	            0.006173	           -0.394411	            0.001857	            0.025735	           -0.000538	          -24.327396	          119.983457	           -0.969278	           -0.299139	            0.005190	           -0.637813	            0.069048	           -0.340546	            0.002751
            0.005500	            4.066750	           55.888455	           -1.008617	           -0.254404	            0.006181	           -0.396365	            0.018305	            0.251561	           -0.004540	          -25.261941	          119.245154	           -1.440789	           -0.298142	            0.005201	           -0.639736	            0.071169	           -0.335941	            0.004059
            0.006000	            4.478745	           59.133317	           -0.995728	           -0.255153	            0.006192	           -0.398931	            0.027215	            0.359326	           -0.006051	          -25.587919	          118.691700	           -1.489549	           -0.297172	            0.005207	           -0.640519	            0.058631	           -0.271966	            0.003413
            0.006500	            4.111682	           63.999437	           -0.744668	           -0.254992	            0.006189	           -0.398354	            0.010895	            0.169579	           -0.001973	          -25.302502	          117.585147	           -0.742761	           -0.295668	            0.005207	           -0.639060	            0.016338	           -0.075924	            0.000480
            0.007000	            2.689400	           69.046994	           -0.811210	           -0.256009	            0.006183	           -0.396906	           -0.008203	           -0.210610	            0.002474	          -23.800072	          116.849281	            0.567960	           -0.297029	            0.005195	           -0.637029	           -0.021711	            0.106591	            0.000518
            0.007500	            1.494935	           74.277221	           -1.427819	           -0.258460	            0.006180	           -0.396367	           -0.007282	           -0.361796	            0.006955	          -21.323616	          118.878012	            2.216615	           -0.297339	            0.005203	           -0.639733	            0.018057	           -0.100668	           -0.001877
            0.008000	            0.576132	           78.064786	           -1.913726	           -0.259206	            0.006186	           -0.397899	           -0.002423	           -0.328304	            0.008048	          -18.515288	          119.803555	            3.720404	           -0.298823	            0.005203	           -0.640970	            0.048978	           -0.316914	           -0.009842
            0.008500	            0.069850	           82.212961	           -2.399111	           -0.258537	            0.006190	           -0.398688	           -0.000056	           -0.065576	            0.001914	          -15.894811	          120.732088	            4.191854	           -0.299329	            0.005205	           -0.642055	            0.077492	           -0.588607	           -0.020437
            0.009000	            0.022716	           84.918314	           -2.708395	           -0.259423	            0.006187	           -0.398027	            0.000050	            0.188212	           -0.006003	          -14.302867	          120.924339	            3.534841	           -0.300512	            0.005201	           -0.642153	            0.063090	           -0.533399	           -0.015592
            0.009500	            0.021327	           88.164472	           -3.015473	           -0.259718	            0.006191	           -0.399092	            0.000059	            0.243833	           -0.008340	          -12.475530	          120.750630	            2.454060	           -0.301910	            0.005185	           -0.639176	            0.048987	           -0.474143	           -0.009636
            0.010000	           -0.895247	           91.587770	           -2.631663	           -0.260457	            0.006186	           -0.397846	           -0.000940	            0.096115	           -0.002762	          -11.261043	          121.678120	            1.799834	           -0.303150	            0.005180	           -0.639172	            0.001374	           -0.014841	           -0.000220
            0.010500	           -2.499575	           92.488199	           -2.486249	           -0.260656	            0.006188	           -0.398330	            0.007463	           -0.276158	            0.007424	           -8.600774	          124.451653	            1.339273	           -0.303252	            0.005189	           -0.641600	           -0.008431	            0.122001	            0.001313
            0.011000	           -3.829479	           93.750195	           -2.569250	           -0.261730	            0.006190	           -0.398761	            0.015124	           -0.370257	            0.010147	           -5.369378	          124.830953	            1.526925	           -0.304560	            0.005184	           -0.641718	           -0.009194	            0.213742	            0.002614
            0.011500	           -5.113298	           95.552407	           -2.512479	           -0.259555	            0.006172	           -0.394471	            0.014090	           -0.263293	            0.006923	           -1.247403	          125.209951	            2.699688	           -0.306567	            0.005172	           -0.640257	            0.001546	           -0.155219	           -0.003347
            0.012000	           -6.168741	           94.472772	           -3.018915	           -0.260075	            0.006188	           -0.398396	            0.003250	           -0.049771	            0.001590	            1.980917	          126.507991	            3.453762	           -0.306944	            0.005174	           -0.641112	           -0.006714	           -0.428747	           -0.011705
            0.012500	           -6.490943	           94.114538	           -3.569935	           -0.260251	            0.006187	           -0.398117	           -0.007968	            0.115533	           -0.004382	            4.367747	          127.252040	            3.783871	           -0.308117	            0.005172	           -0.641722	           -0.017430	           -0.507819	           -0.015100
            0.013000	           -6.950478	           93.936149	           -4.028130	           -0.260105	            0.006188	           -0.398406	           -0.008512	            0.115040	           -0.004933	            6.382045	          127.261322	            3.219877	           -0.310680	            0.005159	           -0.640829	           -0.017302	           -0.345014	           -0.008729
            0.013500	           -7.226255	           95.379008	           -4.204687	           -0.259537	            0.006182	           -0.396935	            0.008007	           -0.105682	            0.004659	            8.722176	          127.825230	            2.376146	           -0.310687	            0.005160	           -0.641114	           -0.004508	           -0.066071	           -0.001228
            0.014000	           -7.776044	           94.837712	           -4.113929	           -0.259834	            0.006185	           -0.397528	            0.024629	           -0.300382	            0.013030	           10.970622	          127.836195	            1.577412	           -0.311895	            0.005152	           -0.639981	            0.026225	            0.305594	            0.003771
            0.014500	           -8.463641	           95.197913	           -4.064820	           -0.259675	            0.006178	           -0.395897	            0.032724	           -0.368075	            0.015716	           14.298978	          127.295601	            1.620954	           -0.312097	            0.005145	           -0.638288	            0.040483	            0.360394	            0.004589
            0.015000	           -9.105946	           94.838241	           -4.294053	           -0.259788	            0.006178	           -0.395884	            0.019417	           -0.202231	            0.009157	           18.184628	          128.226860	            2.608076	           -0.314313	            0.005147	           -0.641014	            0.021860	            0.154142	            0.003135
            0.015500	           -9.290783	           95.381362	           -4.841550	           -0.258254	            0.006180	           -0.396293	            0.003044	           -0.031251	            0.001586	           22.167406	          128.236887	            3.826513	           -0.315118	            0.005145	           -0.641429	           -0.048615	           -0.281234	           -0.008392
            0.016000	           -9.110146	           96.647582	           -5.845424	           -0.258331	            0.006179	           -0.396209	           -0.011566	            0.122701	           -0.007421	           25.209276	          129.347767	            5.237003	           -0.315215	            0.005154	           -0.643955	           -0.086987	           -0.446329	           -0.018071
            0.016500	           -9.066774	           96.471651	           -6.855141	           -0.260013	            0.006185	           -0.397562	            0.001138	           -0.012112	            0.000861	           27.744029	          128.066182	            5.700609	           -0.316794	            0.005143	           -0.642590	           -0.082012	           -0.378566	           -0.016851
            0.017000	           -8.794290	           98.098027	           -7.765985	           -0.258517	            0.006184	           -0.397292	            0.023620	           -0.263476	            0.020858	           29.289248	          128.257244	            5.325183	           -0.317654	            0.005139	           -0.642352	           -0.017498	           -0.076624	           -0.003181
            0.017500	           -8.427989	           99.900951	           -7.805022	           -0.258376	            0.006181	           -0.396538	            0.032111	           -0.380624	            0.029737	           31.120071	          127.161461	            4.616542	           -0.319654	            0.005123	           -0.639880	            0.046646	            0.190605	            0.006920
            0.018000	           -8.291358	          101.704618	           -8.026913	           -0.260038	            0.006178	           -0.396034	            0.025227	           -0.309447	            0.024423	           33.412247	          128.091671	            4.290354	           -0.319212	            0.005128	           -0.640728	            0.097111	            0.372293	            0.012470
